<svg xmlns="http://www.w3.org/2000/svg" xmlns:xlink="http://www.w3.org/1999/xlink" viewBox="0,0,256,256" width="500px" height="500px"><g transform="translate(25.6,25.6) scale(0.8,0.8)"><g fill="#6bfacb" fill-rule="nonzero" stroke="none" stroke-width="1" stroke-linecap="butt" stroke-linejoin="miter" stroke-miterlimit="10" stroke-dasharray="" stroke-dashoffset="0" font-family="none" font-weight="none" font-size="none" text-anchor="none" style="mix-blend-mode: normal"><path d="M-32,288v-320h320v320z" id="bgRectangle"></path></g><g fill="#000000" fill-rule="nonzero" stroke="none" stroke-width="1" stroke-linecap="butt" stroke-linejoin="miter" stroke-miterlimit="10" stroke-dasharray="" stroke-dashoffset="0" font-family="none" font-weight="none" font-size="none" text-anchor="none" style="mix-blend-mode: normal"><g transform="scale(2.56,2.56)"><path d="M50.46484,3.64844c-15.44038,-0.14733 -27.93444,12.34673 -27.78711,27.78711c0.06817,7.04852 2.48451,11.78479 6.35156,17.28711c0.05438,0.11603 0.11979,0.22656 0.19531,0.33008c0,0 6.94407,9.88214 7.33789,21.09766c-0.32944,0.37662 -0.50575,0.86304 -0.49414,1.36328l0.37891,15.58984c0.01474,0.57814 0.27899,1.1216 0.72461,1.49023l10.37305,8.59375c0.74916,0.62099 1.83652,0.61275 2.57617,-0.01953l10.24414,-8.76562c0.41718,-0.35693 0.6693,-0.86965 0.69727,-1.41797l0.80078,-15.76953c0.02299,-0.46438 -0.11652,-0.92225 -0.39453,-1.29492c0.00549,-0.03503 0.01005,-0.0702 0.01367,-0.10547c1.28716,-10.91728 6.91985,-16.12275 7.59375,-16.71484c0.09256,-0.05911 0.1801,-0.12574 0.26172,-0.19922c5.8174,-5.08942 9.45262,-12.62134 9.37305,-21.00586c-0.1484,-15.44109 -12.80483,-28.09877 -28.24609,-28.24609zM49.93164,7.65625l1.75977,4.94336c0.11127,0.34785 0.40331,0.60739 0.76182,0.67704c0.35851,0.06965 0.72648,-0.06166 0.9599,-0.34254c0.23342,-0.28088 0.29518,-0.66667 0.16109,-1.00638l-1.49609,-4.20117c9.62426,0.74494 17.75693,7.13294 21.05664,15.83203l-4.82812,1.00195c-0.54096,0.11218 -0.88855,0.64166 -0.77637,1.18262c0.11218,0.54096 0.64166,0.88855 1.18262,0.77637l5.05273,-1.04883c0.24268,0.84529 0.44307,1.70707 0.59375,2.58594l-7.27148,0.25977c-0.36452,0.00179 -0.69919,0.20176 -0.87348,0.52192c-0.17428,0.32016 -0.16057,0.70978 0.03578,1.0169c0.19636,0.30711 0.54426,0.48307 0.908,0.45923l7.45508,-0.26562c0.05421,0.6221 0.09156,1.24887 0.09766,1.88281c0.05043,5.31322 -1.63498,10.17606 -4.51367,14.10742l-3.68945,-4.45312c-0.1916,-0.23807 -0.48152,-0.37548 -0.78711,-0.37305c-0.3886,0.00294 -0.74031,0.23071 -0.90194,0.58412c-0.16163,0.3534 -0.1039,0.76844 0.14804,1.06432l3.94922,4.76758c-0.49788,0.56917 -1.02232,1.11373 -1.57227,1.63281l-3.08203,-3.87109c-0.18634,-0.24126 -0.47254,-0.38436 -0.77734,-0.38867c-0.38931,-0.00556 -0.74646,0.21533 -0.91537,0.56614c-0.16891,0.35081 -0.11886,0.76775 0.12826,1.06863l3.16016,3.96875c0.0107,0.01396 0.02178,0.02764 0.0332,0.04102c-1.98543,2.06735 -7.05244,8.21262 -8.33398,18.45117c-1.23463,-0.02335 -2.4352,-0.03236 -3.63086,-0.03906c-0.71768,-7.15959 -1.48547,-13.75223 -2.36914,-19.19336c0.18828,-0.11084 0.33508,-0.28028 0.41797,-0.48242l7.40625,-17.01953c0.13575,-0.31244 0.10313,-0.67248 -0.08656,-0.95544c-0.18969,-0.28295 -0.51036,-0.44989 -0.85094,-0.443c-0.1086,0.00211 -0.21613,0.0219 -0.31836,0.05859c-6.92806,2.48368 -13.33361,2.33181 -19.46875,0.08984c-0.38269,-0.14021 -0.81219,-0.03417 -1.08564,0.26805c-0.27346,0.30222 -0.33616,0.74014 -0.1585,1.10695l8.46484,17.48828c-0.77701,5.59086 -0.98401,12.27577 -1.10352,19.19922c-1.45697,0.049 -2.88619,0.11014 -4.27734,0.1875c-0.48582,-8.92516 -4.31832,-16.54989 -6.50977,-20.22656c-0.05988,-0.28972 -0.18329,-0.56255 -0.36133,-0.79883c-1.65655,-2.25016 -2.99228,-4.15725 -4.04687,-6.00195l3.30859,-2.25781c0.37366,-0.24844 0.5361,-0.71535 0.39735,-1.14207c-0.13875,-0.42672 -0.54473,-0.70879 -0.99305,-0.68996c-0.19079,0.00858 -0.37514,0.07161 -0.53125,0.18164l-3.10937,2.12109c-0.46834,-0.99207 -0.86553,-1.99235 -1.16406,-3.04102l4.94922,-2.21484c0.42955,-0.18501 0.67351,-0.64301 0.58738,-1.10271c-0.08613,-0.4597 -0.47936,-0.79831 -0.94675,-0.81526c-0.15745,-0.00583 -0.31404,0.02562 -0.45703,0.0918l-4.58398,2.05078c-0.21992,-1.2597 -0.3428,-2.60883 -0.35742,-4.12109c-0.00115,-0.12059 0.00525,-0.23923 0.00586,-0.35937l4.84961,-0.93555c0.51795,-0.09108 0.87687,-0.56775 0.82128,-1.0907c-0.05559,-0.52295 -0.5067,-0.91351 -1.03222,-0.89367c-0.0565,0.0024 -0.11269,0.00959 -0.16797,0.02148l-4.37891,0.84375c0.15946,-1.77345 0.51658,-3.48609 1.04102,-5.11914l2.73828,1.16211c0.33147,0.15539 0.72136,0.11726 1.01644,-0.09941c0.29508,-0.21667 0.44819,-0.57726 0.39917,-0.94005c-0.04902,-0.36279 -0.29235,-0.6698 -0.63436,-0.80039l-2.82813,-1.20312c0.7876,-1.88079 1.81315,-3.63187 3.03711,-5.2207l1.91992,1.92188c0.25082,0.26123 0.62327,0.36646 0.9737,0.2751c0.35044,-0.09136 0.62411,-0.36503 0.71546,-0.71546c0.09136,-0.35044 -0.01387,-0.72288 -0.27511,-0.9737l-2.04492,-2.04492c3.26065,-3.55412 7.61106,-6.0847 12.55078,-7.0918l1.24414,2.24805c0.173,0.31271 0.49971,0.50934 0.85702,0.51581c0.35731,0.00647 0.69093,-0.17821 0.87513,-0.48445c0.18421,-0.30624 0.19101,-0.6875 0.01785,-1.00011l-0.89062,-1.60742c0.80257,-0.09002 1.61709,-0.13961 2.44336,-0.14844zM15.53906,8.75c-0.44367,0.01705 -0.82298,0.32457 -0.93141,0.75513c-0.10843,0.43055 0.07998,0.88105 0.46266,1.1062l4.37695,2.66211c0.30547,0.20418 0.6983,0.22441 1.02313,0.0527c0.32483,-0.17171 0.52935,-0.50771 0.53268,-0.87512c0.00333,-0.36741 -0.19508,-0.70705 -0.51675,-0.88462l-4.37695,-2.66406c-0.17045,-0.10701 -0.36921,-0.1601 -0.57031,-0.15234zM83.16797,9.88086c-0.22518,0.00535 -0.44196,0.08656 -0.61523,0.23047l-4.90039,3.9668c-0.28613,0.22201 -0.42988,0.58135 -0.37581,0.93945c0.05407,0.3581 0.2975,0.65898 0.63641,0.78662c0.33892,0.12764 0.72036,0.06208 0.99721,-0.17139l4.90039,-3.9668c0.33791,-0.26644 0.46749,-0.71916 0.32175,-1.12405c-0.14574,-0.40488 -0.53413,-0.67115 -0.96433,-0.66111zM40.60352,13.45117c-0.3772,0.0682 -0.69169,0.35566 -0.77344,0.75391c-0.11,0.531 0.23358,1.06069 0.76758,1.17969c0.534,0.12 1.05406,-0.21314 1.16406,-0.74414c0.11,-0.531 -0.23558,-1.05969 -0.76758,-1.17969c-0.1335,-0.03 -0.26489,-0.0325 -0.39062,-0.00977zM46.50586,19.23047c-0.3772,0.0682 -0.69169,0.35566 -0.77344,0.75391c-0.111,0.531 0.23358,1.05873 0.76758,1.17773c0.534,0.12 1.05406,-0.21314 1.16406,-0.74414c0.11,-0.532 -0.23362,-1.06069 -0.76562,-1.17969c-0.1335,-0.03 -0.26684,-0.03055 -0.39258,-0.00781zM40.26367,22.77734c-0.3772,0.0682 -0.69169,0.35566 -0.77344,0.75391c-0.111,0.531 0.23358,1.06069 0.76758,1.17969c0.534,0.12 1.05602,-0.21314 1.16602,-0.74414c0.11,-0.531 -0.23558,-1.05969 -0.76758,-1.17969c-0.1335,-0.03 -0.26684,-0.0325 -0.39258,-0.00977zM13.92969,25.84766c-0.36049,-0.00631 -0.69646,0.1819 -0.87936,0.49261c-0.1829,0.31071 -0.1844,0.6958 -0.00394,1.00793c0.18047,0.31212 0.51496,0.50295 0.87549,0.49946l5.0957,0.01758c0.36055,0.00605 0.69643,-0.18247 0.87908,-0.49339c0.18265,-0.31092 0.18378,-0.69609 0.00295,-1.00807c-0.18082,-0.31198 -0.5156,-0.50247 -0.87618,-0.49853zM56.7207,33.46484l-5.72852,13.16602c-0.35992,-1.90763 -0.73703,-3.65056 -1.13867,-5.16016c-0.11592,-0.43439 -0.50746,-0.73803 -0.95703,-0.74219c-0.4101,-0.00378 -0.78094,0.24319 -0.93555,0.62305c-0.61965,1.52255 -1.11087,3.28563 -1.50781,5.22656l-6.2832,-12.98437c5.26287,1.49857 10.79016,1.53717 16.55078,-0.12891zM86.82422,33.9375c-0.05627,-0.00018 -0.11246,0.0044 -0.16797,0.01367l-4.7793,0.73242c-0.36013,0.04625 -0.6669,0.28405 -0.80148,0.62127c-0.13458,0.33723 -0.07581,0.7209 0.15353,1.00239c0.22934,0.28149 0.59323,0.41657 0.95069,0.3529l4.7793,-0.73242c0.51862,-0.0737 0.89249,-0.53509 0.8571,-1.05772c-0.03539,-0.52263 -0.46805,-0.9294 -0.99187,-0.93252zM48.69336,46.14648c1.2124,5.94447 2.28159,13.70963 3.21875,22.91016c-1.75518,0.00399 -3.46281,0.02783 -5.13281,0.06836c0.1634,-8.78387 0.58059,-17.06638 1.91406,-22.97852zM77.13672,49.02539c-0.49817,-0.00998 -0.92769,0.34826 -1.00729,0.84012c-0.0796,0.49187 0.215,0.9673 0.69089,1.11495l5.16406,1.6543c0.34175,0.11483 0.71885,0.03683 0.98701,-0.20414c0.26816,-0.24097 0.38586,-0.60763 0.30807,-0.95966c-0.07779,-0.35203 -0.33902,-0.63495 -0.68375,-0.7405l-5.16406,-1.6543c-0.0952,-0.03162 -0.19462,-0.04874 -0.29492,-0.05078zM25.63867,52.63867c-0.25914,0.01182 -0.50356,0.12387 -0.68164,0.3125l-3.6582,3.75977c-0.25545,0.25488 -0.35378,0.62761 -0.25731,0.97534c0.09647,0.34772 0.37279,0.61651 0.72305,0.70334c0.35026,0.08683 0.72013,-0.02176 0.96786,-0.28415l3.6582,-3.75977c0.29238,-0.29172 0.37535,-0.73316 0.20885,-1.11113c-0.1665,-0.37797 -0.54822,-0.61472 -0.96081,-0.5959zM52.97656,73.02539c1.56875,0.01309 3.17231,0.04014 4.78711,0.07227l-0.11523,2.26758c-2.11781,-0.63005 -4.20529,-0.79234 -6.18164,-0.64258c-4.78295,0.36243 -8.88767,2.49273 -11.22266,3.9707l-0.12891,-5.3125c2.65589,-0.15672 5.3546,-0.29632 8.28125,-0.34375c1.47738,-0.02394 3.01133,-0.02481 4.58008,-0.01172zM53.25781,76.69727c1.40406,0.02877 2.84374,0.24784 4.28516,0.72656l-0.25977,5.10742c-1.8208,-0.5814 -3.68261,-0.85485 -5.49414,-0.91992c-4.6519,-0.1671 -8.94795,1.03054 -11.42773,1.9043l-0.05859,-2.44141c1.91136,-1.33073 7.06847,-4.49759 12.95508,-4.37695zM51.7207,83.6543c1.82639,0.05252 3.68637,0.33639 5.45703,0.96094l-0.06641,1.30664l-3.92578,3.35938c-1.30492,-0.47059 -2.51179,-0.74259 -3.60547,-0.86914c-1.48358,-0.17167 -2.76207,-0.07926 -3.80664,0.12891c-0.69799,0.1391 -1.25913,0.33531 -1.75195,0.53516l-3.59766,-2.98047l-0.00977,-0.44141c2.15945,-0.78371 6.57957,-2.13593 11.30664,-2zM48.4375,90.32422c0.87203,0.02965 1.86151,0.16945 2.9668,0.48047l-2.60547,2.22852l-2.95312,-2.44531c0.11365,-0.02722 0.19712,-0.06139 0.32031,-0.08594c0.6396,-0.12747 1.39631,-0.20749 2.27148,-0.17773z"></path></g></g></g></svg>